<?xml version="1.0" encoding="UTF-8"?>
<svg width="400" height="400" viewBox="0 0 400 400" fill="none" xmlns="http://www.w3.org/2000/svg">
  <ellipse cx="200" cy="200" rx="200" ry="200" fill="#2563eb"/>
  <rect x="110" y="220" width="180" height="80" rx="16" fill="#fff"/>
  <rect x="130" y="240" width="140" height="12" rx="6" fill="#dbeafe"/>
  <rect x="130" y="260" width="100" height="12" rx="6" fill="#dbeafe"/>
  <rect x="130" y="280" width="80" height="12" rx="6" fill="#dbeafe"/>
  <ellipse cx="200" cy="160" rx="60" ry="60" fill="#fff"/>
  <ellipse cx="200" cy="150" rx="40" ry="38" fill="#f1f5f9"/>
  <ellipse cx="200" cy="150" rx="28" ry="26" fill="#2563eb"/>
  <rect x="170" y="180" width="60" height="10" rx="5" fill="#dbeafe"/>
  <rect x="185" y="190" width="30" height="8" rx="4" fill="#dbeafe"/>
  <rect x="195" y="120" width="10" height="20" rx="5" fill="#fff"/>
  <ellipse cx="200" cy="140" rx="4" ry="4" fill="#fff"/>
  <ellipse cx="190" cy="145" rx="3" ry="3" fill="#fff"/>
  <ellipse cx="210" cy="145" rx="3" ry="3" fill="#fff"/>
</svg> 